<svg xmlns="http://www.w3.org/2000/svg" xmlns:xlink="http://www.w3.org/1999/xlink" width="500" zoomAndPan="magnify" viewBox="0 0 375 374.999991" height="500" preserveAspectRatio="xMidYMid meet" version="1.0"><defs><filter x="0%" y="0%" width="100%" height="100%" id="41aa9f50d6"><feColorMatrix values="0 0 0 0 1 0 0 0 0 1 0 0 0 0 1 0 0 0 1 0" color-interpolation-filters="sRGB"/></filter><g/><clipPath id="4b8e0d6d7e"><path d="M 75 57.90625 L 300 57.90625 L 300 239 L 75 239 Z M 75 57.90625 " clip-rule="nonzero"/></clipPath><mask id="37946f3c66"><g filter="url(#41aa9f50d6)"><rect x="-37.5" width="450" fill="#000000" y="-37.499999" height="449.999989" fill-opacity="0.2"/></g></mask><clipPath id="8bb91ca004"><path d="M 0 0.90625 L 225 0.90625 L 225 181 L 0 181 Z M 0 0.90625 " clip-rule="nonzero"/></clipPath><clipPath id="7cb65c3912"><rect x="0" width="225" y="0" height="182"/></clipPath><mask id="c7ca9bb7ed"><g filter="url(#41aa9f50d6)"><rect x="-37.5" width="450" fill="#000000" y="-37.499999" height="449.999989" fill-opacity="0.33"/></g></mask><clipPath id="cec65365e9"><path d="M 1 0.441406 L 44 0.441406 L 44 35.71875 L 1 35.71875 Z M 1 0.441406 " clip-rule="nonzero"/></clipPath><clipPath id="a2c0db5f68"><rect x="0" width="45" y="0" height="36"/></clipPath><mask id="6c722578dc"><g filter="url(#41aa9f50d6)"><rect x="-37.5" width="450" fill="#000000" y="-37.499999" height="449.999989" fill-opacity="0.33"/></g></mask><clipPath id="4dcb1f1eb5"><path d="M 0 0.398438 L 39.839844 0.398438 L 39.839844 48 L 0 48 Z M 0 0.398438 " clip-rule="nonzero"/></clipPath><clipPath id="c3ca78445e"><rect x="0" width="40" y="0" height="49"/></clipPath><mask id="fb490ca436"><g filter="url(#41aa9f50d6)"><rect x="-37.5" width="450" fill="#000000" y="-37.499999" height="449.999989" fill-opacity="0.33"/></g></mask><clipPath id="d510a0de73"><path d="M 1 1 L 40.601562 1 L 40.601562 39 L 1 39 Z M 1 1 " clip-rule="nonzero"/></clipPath><clipPath id="a358fff2a7"><rect x="0" width="41" y="0" height="40"/></clipPath><clipPath id="527d9e7617"><path d="M 85 236 L 296 236 L 296 243.15625 L 85 243.15625 Z M 85 236 " clip-rule="nonzero"/></clipPath></defs><g clip-path="url(#4b8e0d6d7e)"><g mask="url(#37946f3c66)"><g transform="matrix(1, 0, 0, 1, 75, 57)"><g clip-path="url(#7cb65c3912)"><g clip-path="url(#8bb91ca004)"><path fill="#cbcac8" d="M 224.898438 113.308594 C 224.898438 138.671875 216.507812 162.054688 202.339844 180.863281 L 22.660156 180.863281 C 8.492188 162.054688 0.101562 138.667969 0.101562 113.308594 C 0.101562 51.234375 50.425781 0.90625 112.503906 0.90625 C 174.578125 0.90625 224.90625 51.234375 224.90625 113.308594 Z M 224.898438 113.308594 " fill-opacity="1" fill-rule="nonzero"/></g></g></g></g></g><path fill="#f5fefd" d="M 150.949219 220.933594 L 150.949219 99.332031 L 157.386719 96.585938 L 157.386719 87.222656 L 189.777344 73.40625 L 211.871094 87.539062 L 211.871094 96.863281 L 216.222656 99.652344 L 216.222656 220.933594 Z M 150.949219 220.933594 " fill-opacity="1" fill-rule="nonzero"/><path fill="#f5fefd" d="M 213.765625 100.644531 L 213.765625 218.964844 L 153.398438 218.964844 L 153.398438 100.644531 L 159.914062 97.863281 L 159.914062 88.390625 L 189.582031 75.730469 L 209.363281 88.390625 L 209.363281 97.8125 L 209.695312 98.015625 L 209.507812 97.914062 Z M 213.765625 100.644531 " fill-opacity="1" fill-rule="nonzero"/><path fill="#1b2b38" d="M 189.582031 75.730469 L 189.582031 85.789062 L 189.621094 85.808594 L 209.363281 97.8125 L 209.363281 88.390625 Z M 189.582031 75.730469 " fill-opacity="1" fill-rule="nonzero"/><path fill="#1b2b38" d="M 209.507812 97.914062 L 209.699219 98.007812 L 209.363281 97.8125 L 209.363281 97.824219 L 209.359375 97.824219 L 189.621094 87.910156 L 189.582031 87.921875 L 189.582031 185.3125 L 189.621094 185.3125 L 189.621094 218.964844 L 196.089844 218.964844 L 196.089844 96 L 201.339844 98.933594 L 201.339844 218.964844 L 204.742188 218.964844 L 204.742188 100.921875 L 209.363281 103.503906 L 209.992188 103.855469 L 209.992188 218.964844 L 213.765625 218.964844 L 213.765625 100.644531 Z M 209.507812 97.914062 " fill-opacity="1" fill-rule="nonzero"/><path fill="#1b2b38" d="M 197.507812 185.3125 L 197.507812 218.964844 L 199.921875 218.964844 L 199.921875 99.519531 L 197.507812 98.316406 Z M 197.507812 185.3125 " fill-opacity="1" fill-rule="nonzero"/><path fill="#1b2b38" d="M 206.164062 185.3125 L 206.164062 218.964844 L 208.574219 218.964844 L 208.574219 104.441406 L 206.164062 103.238281 Z M 206.164062 185.3125 " fill-opacity="1" fill-rule="nonzero"/><path fill="#ffbf00" d="M 189.582031 87.921875 L 160.011719 97.824219 C 160.011719 97.824219 159.96875 97.839844 159.96875 97.839844 L 160.011719 97.824219 L 189.582031 85.792969 L 189.582031 75.730469 L 159.914062 88.390625 L 159.914062 97.863281 L 153.398438 100.644531 L 153.398438 218.964844 L 157.382812 218.964844 L 157.382812 102.023438 L 159.914062 100.945312 L 162.636719 99.789062 L 162.636719 218.964844 L 166.253906 218.964844 L 166.253906 99.1875 L 171.507812 96.949219 L 171.507812 218.964844 L 189.621094 218.964844 L 189.621094 87.910156 Z M 184.238281 107.097656 L 184.238281 112.640625 L 181.273438 113.492188 L 181.273438 108.019531 Z M 181.273438 106.042969 L 181.273438 100.589844 L 184.238281 99.601562 L 184.238281 105.121094 Z M 184.238281 114.597656 L 184.238281 120.15625 L 181.273438 120.941406 L 181.273438 115.449219 Z M 184.238281 122.097656 L 184.238281 127.667969 L 181.273438 128.382812 L 181.273438 122.882812 Z M 184.238281 129.597656 L 184.238281 135.183594 L 181.273438 135.832031 L 181.273438 130.3125 Z M 184.238281 137.097656 L 184.238281 142.695312 L 181.273438 143.273438 L 181.273438 137.746094 Z M 184.238281 144.597656 L 184.238281 150.203125 L 181.273438 150.71875 L 181.273438 145.179688 Z M 184.238281 152.097656 L 184.238281 157.710938 L 181.273438 158.160156 L 181.273438 152.613281 Z M 184.238281 159.605469 L 184.238281 165.21875 L 181.273438 165.601562 L 181.273438 160.046875 Z M 184.238281 167.105469 L 184.238281 172.722656 L 181.273438 173.039062 L 181.273438 167.488281 Z M 184.238281 174.605469 L 184.238281 180.226562 L 181.273438 180.476562 L 181.273438 174.925781 Z M 184.238281 97.609375 L 181.273438 98.597656 L 181.273438 93.300781 L 184.238281 92.035156 Z M 179.859375 108.328125 L 179.859375 113.777344 L 176.890625 114.628906 L 176.890625 109.25 Z M 176.890625 107.273438 L 176.890625 101.910156 L 179.859375 100.921875 L 179.859375 106.351562 Z M 179.859375 115.734375 L 179.859375 121.199219 L 176.890625 121.984375 L 176.890625 116.589844 Z M 179.859375 123.144531 L 179.859375 128.625 L 176.890625 129.339844 L 176.890625 123.929688 Z M 179.859375 130.554688 L 179.859375 136.050781 L 176.890625 136.695312 L 176.890625 131.269531 Z M 179.859375 137.964844 L 179.859375 143.46875 L 176.890625 144.050781 L 176.890625 138.613281 Z M 179.859375 145.375 L 179.859375 150.886719 L 176.890625 151.402344 L 176.890625 145.957031 Z M 179.859375 152.789062 L 179.859375 158.308594 L 176.890625 158.757812 L 176.890625 153.300781 Z M 179.859375 160.199219 L 179.859375 165.726562 L 176.890625 166.109375 L 176.890625 160.648438 Z M 179.859375 167.613281 L 179.859375 173.148438 L 176.890625 173.464844 L 176.890625 167.996094 Z M 179.859375 175.03125 L 179.859375 180.5625 L 176.890625 180.816406 L 176.890625 175.347656 Z M 179.859375 98.925781 L 176.890625 99.914062 L 176.890625 94.992188 L 179.859375 93.726562 Z M 179.859375 216.238281 L 176.890625 216.238281 L 176.890625 212.117188 L 179.859375 212.117188 Z M 179.859375 210.226562 L 176.890625 210.226562 L 176.890625 204.761719 L 179.859375 204.699219 Z M 179.859375 202.8125 L 176.890625 202.875 L 176.890625 197.40625 L 179.859375 197.28125 Z M 179.859375 195.398438 L 176.890625 195.523438 L 176.890625 190.054688 L 179.859375 189.863281 Z M 179.859375 187.984375 L 176.890625 188.171875 L 176.890625 182.699219 L 179.859375 182.445312 Z M 184.238281 216.238281 L 181.273438 216.238281 L 181.273438 212.117188 L 184.238281 212.117188 Z M 184.238281 210.226562 L 181.273438 210.226562 L 181.273438 204.679688 L 184.238281 204.613281 Z M 184.238281 202.726562 L 181.273438 202.789062 L 181.273438 197.238281 L 184.238281 197.113281 Z M 184.238281 195.226562 L 181.273438 195.355469 L 181.273438 189.796875 L 184.238281 189.609375 Z M 184.238281 187.726562 L 181.273438 187.917969 L 181.273438 182.359375 L 184.238281 182.109375 Z M 184.238281 187.726562 " fill-opacity="1" fill-rule="nonzero"/><path fill="#ffbf00" d="M 242.664062 113.160156 L 193.65625 124.871094 L 193.65625 218.804688 L 262.59375 218.804688 L 262.59375 125.253906 Z M 242.664062 113.160156 " fill-opacity="1" fill-rule="nonzero"/><path fill="#f5fefd" d="M 191.691406 221.050781 L 191.691406 123.109375 L 243.128906 110.820312 L 264.554688 123.824219 L 264.554688 221.050781 Z M 191.691406 221.050781 " fill-opacity="1" fill-rule="nonzero"/><path fill="#ffbf00" d="M 195.074219 217.386719 L 195.074219 125.992188 L 242.429688 114.675781 L 261.175781 126.050781 L 261.175781 217.386719 Z M 195.074219 217.386719 " fill-opacity="1" fill-rule="nonzero"/><path fill="#1b2b38" d="M 242.664062 113.160156 L 193.65625 124.871094 L 193.65625 218.804688 L 262.59375 218.804688 L 262.59375 125.253906 Z M 236.8125 117.023438 L 239.699219 116.296875 L 239.644531 122.949219 L 236.753906 123.679688 Z M 231.722656 118.199219 L 234.613281 117.46875 L 234.554688 124.121094 L 231.664062 124.851562 Z M 226.632812 119.371094 L 229.523438 118.648438 L 229.46875 125.300781 L 226.578125 126.027344 L 226.632812 119.375 Z M 221.546875 120.546875 L 224.433594 119.820312 L 224.378906 126.472656 L 221.488281 127.195312 L 221.546875 120.542969 Z M 216.457031 121.71875 L 219.347656 120.992188 L 219.289062 127.644531 L 216.402344 128.375 Z M 211.371094 122.894531 L 214.257812 122.164062 L 214.203125 128.820312 L 211.3125 129.546875 Z M 206.28125 124.066406 L 209.171875 123.34375 L 209.113281 129.996094 L 206.222656 130.71875 Z M 201.191406 125.242188 L 204.082031 124.515625 L 204.023438 131.167969 L 201.136719 131.890625 L 201.191406 125.238281 Z M 196.105469 126.417969 L 198.992188 125.6875 L 198.9375 132.339844 L 196.046875 133.070312 Z M 239.980469 206.3125 L 196.367188 207.503906 L 196.367188 203.320312 L 239.980469 202.125 Z M 239.980469 195.804688 L 196.367188 198.054688 L 196.367188 193.871094 L 239.980469 191.617188 Z M 239.980469 185.03125 L 196.367188 188.601562 L 196.367188 184.417969 L 239.980469 180.847656 Z M 239.980469 174.789062 L 196.367188 179.152344 L 196.367188 174.96875 L 239.980469 170.605469 Z M 239.980469 164.015625 L 196.367188 169.707031 L 196.367188 165.519531 L 239.980469 159.832031 Z M 239.980469 152.980469 L 196.367188 160.253906 L 196.367188 156.066406 L 239.980469 148.792969 Z M 239.980469 142.730469 L 196.367188 150.796875 L 196.367188 146.613281 L 239.980469 138.546875 Z M 239.980469 132.316406 L 196.367188 141.351562 L 196.367188 137.164062 L 239.980469 128.132812 Z M 245.683594 204.816406 L 245.039062 129.550781 L 246.625 130.394531 L 245.679688 204.816406 Z M 250.71875 207.332031 L 250.082031 132.066406 L 251.664062 132.910156 Z M 256.53125 210.707031 L 255.886719 135.4375 L 257.472656 136.28125 L 256.527344 210.707031 Z M 256.53125 210.707031 " fill-opacity="1" fill-rule="nonzero"/><path fill="#f5fefd" d="M 131.699219 131.371094 L 114.628906 141.699219 L 114.628906 221.597656 L 173.695312 221.597656 L 173.695312 141.375 Z M 131.699219 131.371094 " fill-opacity="1" fill-rule="nonzero"/><path fill="#1b2b38" d="M 140.105469 209.058594 L 134.257812 208.898438 L 134.257812 205.523438 L 140.105469 205.683594 Z M 140.105469 200.722656 L 134.257812 200.417969 L 134.257812 197.039062 L 140.105469 197.339844 Z M 140.105469 192.199219 L 134.257812 191.71875 L 134.257812 188.34375 L 140.105469 188.824219 Z M 140.105469 184.039062 L 134.257812 183.453125 L 134.257812 180.074219 L 140.105469 180.664062 Z M 140.105469 175.523438 L 134.257812 174.753906 L 134.257812 171.375 L 140.105469 172.140625 Z M 140.105469 166.824219 L 134.257812 165.847656 L 134.257812 162.46875 L 140.105469 163.445312 Z M 140.105469 158.660156 L 134.257812 157.574219 L 134.257812 154.199219 L 140.105469 155.28125 Z M 140.105469 149.605469 L 134.257812 148.242188 L 134.257812 144.863281 L 140.105469 146.230469 Z M 147.109375 209.253906 L 142.15625 209.117188 L 142.15625 205.738281 L 147.109375 205.871094 Z M 147.109375 201.082031 L 142.15625 200.828125 L 142.15625 197.445312 L 147.109375 197.699219 Z M 147.109375 192.773438 L 142.15625 192.367188 L 142.15625 188.988281 L 147.109375 189.394531 Z M 147.109375 184.738281 L 142.15625 184.242188 L 142.15625 180.867188 L 147.109375 181.363281 Z M 147.109375 176.433594 L 142.15625 175.785156 L 142.15625 172.40625 L 147.109375 173.054688 Z M 147.109375 167.992188 L 142.15625 167.164062 L 142.15625 163.789062 L 147.109375 164.613281 Z M 147.109375 159.953125 L 142.15625 159.035156 L 142.15625 155.660156 L 147.109375 156.578125 Z M 147.109375 151.242188 L 142.15625 150.085938 L 142.15625 146.707031 L 147.109375 147.867188 Z M 153.085938 209.414062 L 149.160156 209.308594 L 149.160156 205.929688 L 153.085938 206.039062 Z M 153.085938 201.394531 L 149.160156 201.191406 L 149.160156 197.808594 L 153.085938 198.011719 Z M 153.085938 193.261719 L 149.160156 192.9375 L 149.160156 189.566406 L 153.085938 189.882812 Z M 153.085938 185.339844 L 149.160156 184.945312 L 149.160156 181.570312 L 153.085938 181.960938 Z M 153.085938 177.214844 L 149.160156 176.699219 L 149.160156 173.316406 L 153.085938 173.832031 Z M 153.085938 168.988281 L 149.160156 168.332031 L 149.160156 164.957031 L 153.085938 165.609375 Z M 153.085938 161.0625 L 149.160156 160.332031 L 149.160156 156.957031 L 153.085938 157.683594 Z M 153.085938 152.636719 L 149.160156 151.722656 L 149.160156 148.34375 L 153.085938 149.261719 Z M 159.0625 209.578125 L 155.136719 209.472656 L 155.136719 206.09375 L 159.0625 206.199219 Z M 159.0625 201.703125 L 155.136719 201.496094 L 155.136719 198.117188 L 159.0625 198.320312 Z M 159.0625 193.75 L 155.136719 193.429688 L 155.136719 190.054688 L 159.0625 190.375 Z M 159.0625 185.933594 L 155.136719 185.542969 L 155.136719 182.164062 L 159.0625 182.558594 Z M 159.0625 177.992188 L 155.136719 177.480469 L 155.136719 174.097656 L 159.0625 174.609375 Z M 159.0625 169.984375 L 155.136719 169.332031 L 155.136719 165.949219 L 159.0625 166.609375 Z M 159.0625 162.164062 L 155.136719 161.4375 L 155.136719 158.0625 L 159.0625 158.785156 Z M 159.0625 154.035156 L 155.136719 153.117188 L 155.136719 149.738281 L 159.0625 150.65625 Z M 164.523438 209.730469 L 161.113281 209.636719 L 161.113281 206.253906 L 164.523438 206.351562 Z M 164.523438 201.980469 L 161.113281 201.804688 L 161.113281 198.425781 L 164.523438 198.597656 Z M 164.523438 194.199219 L 161.113281 193.921875 L 161.113281 190.546875 L 164.523438 190.824219 Z M 164.523438 186.484375 L 161.113281 186.144531 L 161.113281 182.765625 L 164.523438 183.105469 Z M 164.523438 178.703125 L 161.113281 178.261719 L 161.113281 174.878906 L 164.523438 175.324219 Z M 164.523438 170.898438 L 161.113281 170.328125 L 161.113281 166.949219 L 164.523438 167.515625 Z M 164.523438 163.175781 L 161.113281 162.546875 L 161.113281 159.167969 L 164.523438 159.796875 Z M 164.523438 155.308594 L 161.113281 154.511719 L 161.113281 151.132812 L 164.523438 151.933594 Z M 132.078125 133.707031 L 132.070312 133.707031 L 132.070312 218.984375 L 171.640625 218.984375 L 171.640625 143.160156 Z M 169.460938 213.289062 L 168.472656 147.425781 L 134.257812 139.074219 L 134.257812 137.742188 L 169.460938 146.523438 Z M 169.460938 213.289062 " fill-opacity="1" fill-rule="nonzero"/><path fill="#ffbf00" d="M 115.996094 143.46875 L 115.996094 218.984375 L 132.070312 218.984375 L 132.070312 133.714844 Z M 119.480469 212.914062 L 118.71875 147.75 L 120 146.964844 L 119.480469 212.917969 Z M 124.171875 214.039062 L 123.410156 144.597656 L 124.6875 143.8125 Z M 127.472656 142.25 L 128.753906 141.464844 L 128.234375 216.390625 Z M 127.472656 142.25 " fill-opacity="1" fill-rule="nonzero"/><path fill="#ffbf00" d="M 90.789062 239.292969 L 90.789062 214.488281 L 76.453125 214.53125 L 117.703125 174.695312 L 158.375 183.5625 L 191.488281 153.734375 L 228.960938 166.660156 L 248.839844 188.496094 L 263.878906 188.292969 L 296.8125 219.644531 L 288.992188 219.644531 L 288.796875 239.105469 Z M 90.789062 239.292969 " fill-opacity="1" fill-rule="nonzero"/><path fill="#1b2b38" d="M 81.148438 212.625 L 118.289062 176.757812 L 158.921875 185.617188 L 191.925781 155.886719 L 227.886719 168.292969 L 248.015625 190.402344 L 263.132812 190.195312 L 292.082031 217.75 L 287.117188 217.75 L 286.921875 238.835938 L 273.867188 237.398438 L 92.683594 237.398438 L 92.683594 212.59375 Z M 81.148438 212.625 " fill-opacity="1" fill-rule="nonzero"/><g mask="url(#c7ca9bb7ed)"><g transform="matrix(1, 0, 0, 1, 171, 169)"><g clip-path="url(#a2c0db5f68)"><g clip-path="url(#cec65365e9)"><path fill="#ffbf00" d="M 1.425781 20.617188 L 23.6875 0.914062 L 43.851562 21.476562 L 3.851562 21.476562 L 3.851562 35.070312 L 1.425781 34.972656 Z M 1.425781 20.617188 " fill-opacity="1" fill-rule="nonzero"/></g></g></g></g><g mask="url(#6c722578dc)"><g transform="matrix(1, 0, 0, 1, 102, 188)"><g clip-path="url(#c3ca78445e)"><g clip-path="url(#4dcb1f1eb5)"><path fill="#ffbf00" d="M 0.0585938 18.320312 L 19.335938 0.867188 L 39.324219 18.335938 L 39.699219 47.835938 L 0.113281 47.835938 Z M 0.0585938 18.320312 " fill-opacity="1" fill-rule="nonzero"/></g></g></g></g><path fill="#1b2b38" d="M 126.585938 201.808594 C 126.585938 202.210938 126.542969 202.613281 126.464844 203.007812 C 126.386719 203.402344 126.269531 203.785156 126.117188 204.15625 C 125.960938 204.527344 125.773438 204.882812 125.546875 205.21875 C 125.324219 205.550781 125.066406 205.863281 124.78125 206.148438 C 124.496094 206.433594 124.1875 206.6875 123.851562 206.910156 C 123.515625 207.132812 123.160156 207.324219 122.785156 207.476562 C 122.414062 207.628906 122.027344 207.746094 121.632812 207.824219 C 121.234375 207.902344 120.835938 207.945312 120.433594 207.945312 C 120.027344 207.945312 119.628906 207.902344 119.230469 207.824219 C 118.835938 207.746094 118.449219 207.628906 118.078125 207.476562 C 117.703125 207.324219 117.347656 207.132812 117.011719 206.910156 C 116.675781 206.6875 116.367188 206.433594 116.082031 206.148438 C 115.796875 205.863281 115.539062 205.550781 115.316406 205.21875 C 115.089844 204.882812 114.902344 204.527344 114.746094 204.15625 C 114.59375 203.785156 114.476562 203.402344 114.398438 203.007812 C 114.320312 202.613281 114.28125 202.210938 114.28125 201.808594 C 114.28125 201.40625 114.320312 201.007812 114.398438 200.613281 C 114.476562 200.21875 114.59375 199.835938 114.746094 199.460938 C 114.902344 199.089844 115.089844 198.738281 115.316406 198.402344 C 115.539062 198.066406 115.796875 197.757812 116.082031 197.472656 C 116.367188 197.1875 116.675781 196.933594 117.011719 196.710938 C 117.347656 196.488281 117.703125 196.296875 118.078125 196.144531 C 118.449219 195.988281 118.835938 195.871094 119.230469 195.792969 C 119.628906 195.714844 120.027344 195.675781 120.433594 195.675781 C 120.835938 195.675781 121.234375 195.714844 121.632812 195.792969 C 122.027344 195.871094 122.414062 195.988281 122.785156 196.144531 C 123.160156 196.296875 123.515625 196.488281 123.851562 196.710938 C 124.1875 196.933594 124.496094 197.1875 124.78125 197.472656 C 125.066406 197.757812 125.324219 198.066406 125.546875 198.402344 C 125.773438 198.738281 125.960938 199.089844 126.117188 199.460938 C 126.269531 199.835938 126.386719 200.21875 126.464844 200.613281 C 126.542969 201.007812 126.585938 201.40625 126.585938 201.808594 Z M 126.585938 201.808594 " fill-opacity="1" fill-rule="nonzero"/><path fill="#ffbf00" d="M 147.65625 206.421875 L 119.316406 181.09375 L 86.519531 210.691406 L 91.925781 210.691406 L 119.996094 184.832031 L 147.3125 208.984375 L 147.8125 208.984375 L 147.8125 206.421875 Z M 147.65625 206.421875 " fill-opacity="1" fill-rule="nonzero"/><path fill="#ffbf00" d="M 168.183594 206.335938 L 147.8125 206.414062 L 147.8125 208.980469 L 167.949219 208.980469 Z M 168.183594 206.335938 " fill-opacity="1" fill-rule="nonzero"/><path fill="#ffbf00" d="M 142.699219 207.226562 L 142.699219 236.417969 L 145.546875 236.417969 L 145.546875 210.6875 Z M 142.699219 207.226562 " fill-opacity="1" fill-rule="nonzero"/><path fill="#1b2b38" d="M 104.429688 217.523438 L 137.179688 217.523438 L 137.179688 236.417969 L 104.429688 236.417969 Z M 104.429688 217.523438 " fill-opacity="1" fill-rule="nonzero"/><path fill="#cbcac8" d="M 106.453125 220.957031 L 119.808594 220.957031 L 119.808594 227.257812 L 106.453125 227.257812 Z M 106.453125 220.957031 " fill-opacity="1" fill-rule="nonzero"/><path fill="#cbcac8" d="M 106.453125 228.941406 L 106.453125 237.273438 L 119.808594 237.113281 L 119.808594 228.941406 Z M 106.453125 228.941406 " fill-opacity="1" fill-rule="nonzero"/><path fill="#cbcac8" d="M 121.664062 228.941406 L 134.570312 228.941406 L 134.570312 237.277344 L 121.664062 237.277344 Z M 121.664062 228.941406 " fill-opacity="1" fill-rule="nonzero"/><path fill="#cbcac8" d="M 121.664062 227.261719 L 134.566406 227.390625 L 134.566406 220.957031 L 121.664062 220.957031 Z M 121.664062 227.261719 " fill-opacity="1" fill-rule="nonzero"/><path fill="#ffbf00" d="M 144.640625 236.417969 L 144.640625 209.578125 L 145.546875 210.6875 L 145.546875 236.417969 Z M 144.640625 236.417969 " fill-opacity="1" fill-rule="nonzero"/><path fill="#cbcac8" d="M 153.957031 217.761719 L 157.292969 217.761719 L 157.292969 222.273438 L 153.957031 222.273438 Z M 153.957031 217.761719 " fill-opacity="1" fill-rule="nonzero"/><path fill="#cbcac8" d="M 153.957031 223.648438 L 157.292969 223.648438 L 157.292969 228.234375 L 153.957031 228.234375 Z M 153.957031 223.648438 " fill-opacity="1" fill-rule="nonzero"/><path fill="#cbcac8" d="M 158.324219 223.648438 L 158.324219 228.234375 L 161.34375 228.234375 L 161.34375 223.800781 Z M 158.324219 223.648438 " fill-opacity="1" fill-rule="nonzero"/><path fill="#cbcac8" d="M 158.324219 217.761719 L 161.34375 217.761719 L 161.34375 222.273438 L 158.324219 222.273438 Z M 158.324219 217.761719 " fill-opacity="1" fill-rule="nonzero"/><path fill="#ffbf00" d="M 120.300781 201.957031 L 116.296875 201.957031 C 116.296875 201.957031 116.019531 198.753906 120.300781 197.722656 Z M 120.300781 201.957031 " fill-opacity="1" fill-rule="nonzero"/><path fill="#ffbf00" d="M 121.242188 197.722656 L 121.242188 201.957031 C 121.242188 201.957031 124.960938 201.980469 125.523438 201.957031 C 125.929688 201.242188 124.605469 197.722656 121.242188 197.722656 Z M 121.242188 197.722656 " fill-opacity="1" fill-rule="nonzero"/><path fill="#ffbf00" d="M 120.300781 202.882812 L 116.296875 202.882812 C 116.296875 202.882812 116.019531 206.085938 120.300781 207.117188 Z M 120.300781 202.882812 " fill-opacity="1" fill-rule="nonzero"/><path fill="#ffbf00" d="M 121.242188 207.117188 L 121.242188 202.882812 C 121.242188 202.882812 124.960938 202.859375 125.523438 202.882812 C 125.929688 203.597656 124.605469 207.117188 121.242188 207.117188 Z M 121.242188 207.117188 " fill-opacity="1" fill-rule="nonzero"/><path fill="#1b2b38" d="M 198.8125 181.855469 C 198.8125 182.222656 198.777344 182.589844 198.707031 182.953125 C 198.636719 183.316406 198.527344 183.667969 198.386719 184.007812 C 198.246094 184.351562 198.074219 184.675781 197.871094 184.984375 C 197.667969 185.289062 197.4375 185.574219 197.175781 185.835938 C 196.917969 186.097656 196.636719 186.332031 196.328125 186.535156 C 196.023438 186.742188 195.703125 186.914062 195.363281 187.058594 C 195.023438 187.199219 194.675781 187.304688 194.316406 187.378906 C 193.953125 187.449219 193.589844 187.484375 193.222656 187.484375 C 192.855469 187.484375 192.492188 187.449219 192.132812 187.378906 C 191.773438 187.304688 191.425781 187.199219 191.085938 187.058594 C 190.746094 186.914062 190.425781 186.742188 190.117188 186.535156 C 189.8125 186.332031 189.53125 186.097656 189.273438 185.835938 C 189.011719 185.574219 188.78125 185.289062 188.578125 184.984375 C 188.371094 184.675781 188.199219 184.351562 188.058594 184.007812 C 187.917969 183.667969 187.8125 183.316406 187.742188 182.953125 C 187.671875 182.589844 187.632812 182.222656 187.632812 181.855469 C 187.632812 181.484375 187.671875 181.117188 187.742188 180.753906 C 187.8125 180.390625 187.917969 180.039062 188.058594 179.699219 C 188.199219 179.355469 188.371094 179.03125 188.578125 178.726562 C 188.78125 178.417969 189.011719 178.132812 189.273438 177.871094 C 189.53125 177.609375 189.8125 177.375 190.117188 177.171875 C 190.425781 176.964844 190.746094 176.792969 191.085938 176.648438 C 191.425781 176.507812 191.773438 176.402344 192.132812 176.328125 C 192.492188 176.257812 192.855469 176.222656 193.222656 176.222656 C 193.589844 176.222656 193.953125 176.257812 194.316406 176.328125 C 194.675781 176.402344 195.023438 176.507812 195.363281 176.648438 C 195.703125 176.792969 196.023438 176.964844 196.328125 177.171875 C 196.636719 177.375 196.917969 177.609375 197.175781 177.871094 C 197.4375 178.132812 197.667969 178.417969 197.871094 178.726562 C 198.074219 179.03125 198.25 179.355469 198.386719 179.699219 C 198.527344 180.039062 198.636719 180.390625 198.707031 180.753906 C 198.777344 181.117188 198.8125 181.484375 198.8125 181.855469 Z M 198.8125 181.855469 " fill-opacity="1" fill-rule="nonzero"/><path fill="#ffbf00" d="M 193.445312 182.042969 L 189.90625 182.042969 C 189.90625 182.042969 189.652344 179.210938 193.445312 178.292969 Z M 193.445312 182.042969 " fill-opacity="1" fill-rule="nonzero"/><path fill="#ffbf00" d="M 194.277344 178.292969 L 194.277344 182.042969 C 194.277344 182.042969 197.574219 182.066406 198.070312 182.042969 C 198.429688 181.410156 197.257812 178.292969 194.277344 178.292969 Z M 194.277344 178.292969 " fill-opacity="1" fill-rule="nonzero"/><path fill="#ffbf00" d="M 193.445312 182.859375 L 189.90625 182.859375 C 189.90625 182.859375 189.652344 185.695312 193.445312 186.609375 Z M 193.445312 182.859375 " fill-opacity="1" fill-rule="nonzero"/><path fill="#ffbf00" d="M 194.277344 186.605469 L 194.277344 182.855469 C 194.277344 182.855469 197.574219 182.832031 198.070312 182.855469 C 198.429688 183.488281 197.257812 186.605469 194.277344 186.605469 Z M 194.277344 186.605469 " fill-opacity="1" fill-rule="nonzero"/><path fill="#ffbf00" d="M 97.804688 236.417969 L 100.082031 236.417969 L 100.082031 208.359375 L 97.804688 211.609375 Z M 97.804688 236.417969 " fill-opacity="1" fill-rule="nonzero"/><path fill="#ffbf00" d="M 160.792969 188.839844 L 193.214844 160.023438 L 223.5 190.195312 L 218.746094 190.195312 L 193.140625 164.164062 L 166.128906 188.503906 Z M 160.792969 188.839844 " fill-opacity="1" fill-rule="nonzero"/><path fill="#ffbf00" d="M 174.851562 203.996094 L 207.175781 204.222656 L 207.175781 190.476562 L 174.851562 190.476562 Z M 174.851562 203.996094 " fill-opacity="1" fill-rule="nonzero"/><path fill="#1b2b38" d="M 176.863281 192.574219 L 205.316406 192.574219 L 205.316406 203.113281 L 176.863281 203.113281 Z M 176.863281 192.574219 " fill-opacity="1" fill-rule="nonzero"/><path fill="#ffbf00" d="M 207.175781 190.476562 L 208.824219 190.476562 L 208.824219 204.226562 L 207.175781 204.226562 Z M 207.175781 190.476562 " fill-opacity="1" fill-rule="nonzero"/><path fill="#cbcac8" d="M 179.832031 195.242188 L 184.273438 195.242188 L 184.273438 198.589844 L 179.832031 198.589844 Z M 179.832031 195.242188 " fill-opacity="1" fill-rule="nonzero"/><path fill="#cbcac8" d="M 185.324219 195.242188 L 190.214844 195.242188 L 190.214844 198.589844 L 185.324219 198.589844 Z M 185.324219 195.242188 " fill-opacity="1" fill-rule="nonzero"/><path fill="#cbcac8" d="M 192.234375 195.242188 L 197.128906 195.242188 L 197.128906 198.589844 L 192.234375 198.589844 Z M 192.234375 195.242188 " fill-opacity="1" fill-rule="nonzero"/><path fill="#cbcac8" d="M 198.269531 195.242188 L 203.164062 195.242188 L 203.164062 198.589844 L 198.269531 198.589844 Z M 198.269531 195.242188 " fill-opacity="1" fill-rule="nonzero"/><path fill="#cbcac8" d="M 179.832031 199.765625 L 184.273438 199.765625 L 184.273438 203.113281 L 179.832031 203.113281 Z M 179.832031 199.765625 " fill-opacity="1" fill-rule="nonzero"/><path fill="#cbcac8" d="M 185.324219 199.765625 L 190.214844 199.765625 L 190.214844 203.113281 L 185.324219 203.113281 Z M 185.324219 199.765625 " fill-opacity="1" fill-rule="nonzero"/><path fill="#cbcac8" d="M 192.234375 199.765625 L 197.128906 199.765625 L 197.128906 203.113281 L 192.234375 203.113281 Z M 192.234375 199.765625 " fill-opacity="1" fill-rule="nonzero"/><path fill="#cbcac8" d="M 198.269531 199.765625 L 203.164062 199.765625 L 203.164062 203.113281 L 198.269531 203.113281 Z M 198.269531 199.765625 " fill-opacity="1" fill-rule="nonzero"/><path fill="#ffbf00" d="M 172.691406 235.039062 L 208.824219 235.039062 L 208.824219 236.8125 L 172.691406 236.8125 Z M 172.691406 235.039062 " fill-opacity="1" fill-rule="nonzero"/><path fill="#ffbf00" d="M 206.605469 221.359375 L 208.824219 221.359375 L 208.824219 235.039062 L 206.605469 235.039062 Z M 206.605469 221.359375 " fill-opacity="1" fill-rule="nonzero"/><path fill="#cbcac8" d="M 184.640625 223.398438 L 189.5625 223.398438 L 189.5625 227.804688 L 184.640625 227.804688 Z M 184.640625 223.398438 " fill-opacity="1" fill-rule="nonzero"/><path fill="#cbcac8" d="M 184.640625 228.988281 L 189.5625 228.988281 L 189.5625 233.394531 L 184.640625 233.394531 Z M 184.640625 228.988281 " fill-opacity="1" fill-rule="nonzero"/><path fill="#cbcac8" d="M 191.105469 223.398438 L 196.027344 223.398438 L 196.027344 227.804688 L 191.105469 227.804688 Z M 191.105469 223.398438 " fill-opacity="1" fill-rule="nonzero"/><path fill="#cbcac8" d="M 191.105469 228.988281 L 196.027344 228.988281 L 196.027344 233.394531 L 191.105469 233.394531 Z M 191.105469 228.988281 " fill-opacity="1" fill-rule="nonzero"/><path fill="#cbcac8" d="M 176.800781 223.171875 L 180.03125 223.171875 L 180.03125 227.671875 L 176.800781 227.671875 Z M 176.800781 223.171875 " fill-opacity="1" fill-rule="nonzero"/><path fill="#cbcac8" d="M 176.800781 229.015625 L 180.03125 229.015625 L 180.03125 233.519531 L 176.800781 233.519531 Z M 176.800781 229.015625 " fill-opacity="1" fill-rule="nonzero"/><path fill="#cbcac8" d="M 201.546875 223.171875 L 204.777344 223.171875 L 204.777344 227.671875 L 201.546875 227.671875 Z M 201.546875 223.171875 " fill-opacity="1" fill-rule="nonzero"/><path fill="#cbcac8" d="M 201.546875 229.015625 L 204.777344 229.015625 L 204.777344 233.519531 L 201.546875 233.519531 Z M 201.546875 229.015625 " fill-opacity="1" fill-rule="nonzero"/><path fill="#ffbf00" d="M 172.691406 220.914062 L 174.929688 220.914062 L 174.929688 235.039062 L 172.691406 235.039062 Z M 172.691406 220.914062 " fill-opacity="1" fill-rule="nonzero"/><path fill="#ffbf00" d="M 208.824219 219.929688 L 208.824219 221.789062 L 172.691406 221.789062 L 172.691406 219.929688 Z M 208.824219 219.929688 " fill-opacity="1" fill-rule="nonzero"/><path fill="#ffbf00" d="M 88.984375 210.6875 L 119.390625 184.105469 L 119.996094 184.828125 L 91.925781 210.6875 Z M 88.984375 210.6875 " fill-opacity="1" fill-rule="nonzero"/><path fill="#ffbf00" d="M 219.785156 209.707031 L 243.039062 209.640625 L 263.132812 190.195312 L 292.082031 217.75 L 265.449219 192.402344 L 244.886719 212.441406 L 219.785156 212.507812 Z M 219.785156 209.707031 " fill-opacity="1" fill-rule="nonzero"/><path fill="#ffbf00" d="M 219.785156 212.773438 L 219.90625 235.847656 L 215.742188 235.847656 L 215.742188 191.902344 L 221.171875 191.902344 L 219.636719 193.875 L 219.785156 210.003906 Z M 219.785156 212.773438 " fill-opacity="1" fill-rule="nonzero"/><path fill="#ffbf00" d="M 164.855469 212.507812 L 164.742188 235.847656 L 168.898438 235.847656 L 168.898438 191.398438 L 163.46875 191.398438 L 165.011719 193.390625 L 164.855469 209.707031 Z M 164.855469 212.507812 " fill-opacity="1" fill-rule="nonzero"/><path fill="#cbcac8" d="M 224.25 220.96875 L 229.910156 220.96875 L 229.910156 225.53125 L 224.25 225.53125 Z M 224.25 220.96875 " fill-opacity="1" fill-rule="nonzero"/><path fill="#cbcac8" d="M 231.414062 221.164062 L 237.074219 221.164062 L 237.074219 225.730469 L 231.414062 225.730469 Z M 231.414062 221.164062 " fill-opacity="1" fill-rule="nonzero"/><path fill="#cbcac8" d="M 224.25 226.824219 L 229.910156 226.824219 L 229.910156 231.390625 L 224.25 231.390625 Z M 224.25 226.824219 " fill-opacity="1" fill-rule="nonzero"/><path fill="#cbcac8" d="M 231.414062 227.023438 L 237.074219 227.023438 L 237.074219 231.589844 L 231.414062 231.589844 Z M 231.414062 227.023438 " fill-opacity="1" fill-rule="nonzero"/><g mask="url(#fb490ca436)"><g transform="matrix(1, 0, 0, 1, 245, 198)"><g clip-path="url(#a358fff2a7)"><g clip-path="url(#d510a0de73)"><path fill="#ffbf00" d="M 40.25 18.730469 L 40.007812 38.722656 L 26.066406 38.722656 L 26.066406 19.566406 L 9.667969 19.566406 L 9.667969 37.75 L 1.445312 37.75 L 1.246094 26.609375 L 1.144531 21.042969 L 1.246094 20.941406 L 3.464844 18.730469 L 22.078125 1.171875 Z M 40.25 18.730469 " fill-opacity="1" fill-rule="nonzero"/></g></g></g></g><path fill="#1b2b38" d="M 254.664062 217.566406 L 271.0625 217.566406 L 271.0625 235.847656 L 254.664062 235.847656 Z M 254.664062 217.566406 " fill-opacity="1" fill-rule="nonzero"/><path fill="#cbcac8" d="M 257.636719 220.09375 L 261.710938 220.09375 L 261.710938 222.464844 L 257.636719 222.464844 Z M 257.636719 220.09375 " fill-opacity="1" fill-rule="nonzero"/><path fill="#cbcac8" d="M 264.164062 220.09375 L 268.234375 220.09375 L 268.234375 222.464844 L 264.164062 222.464844 Z M 264.164062 220.09375 " fill-opacity="1" fill-rule="nonzero"/><path fill="#cbcac8" d="M 257.636719 225.027344 L 261.710938 225.027344 L 261.710938 235.855469 L 257.636719 235.855469 Z M 257.636719 225.027344 " fill-opacity="1" fill-rule="nonzero"/><path fill="#cbcac8" d="M 264.164062 225.027344 L 268.234375 225.027344 L 268.234375 235.855469 L 264.164062 235.855469 Z M 264.164062 225.027344 " fill-opacity="1" fill-rule="nonzero"/><g clip-path="url(#527d9e7617)"><path fill="#1b2b38" d="M 91.5 236.417969 L 288.867188 236.417969 L 295.675781 243.214844 L 85.183594 243.214844 Z M 91.5 236.417969 " fill-opacity="1" fill-rule="nonzero"/></g><path fill="#ffbf00" d="M 168.898438 213.621094 L 212.617188 213.621094 L 212.617188 216.1875 L 168.898438 216.1875 Z M 168.898438 213.621094 " fill-opacity="1" fill-rule="nonzero"/><path fill="#ffbf00" d="M 248.210938 190.398438 L 229.910156 203.113281 L 245.347656 190.398438 Z M 248.210938 190.398438 " fill-opacity="1" fill-rule="nonzero"/><g fill="#1b2b38" fill-opacity="1"><g transform="translate(22.867607, 290.917042)"><g><path d="M 16.5625 0.546875 C 13.664062 0.546875 11.0625 -0.0625 8.75 -1.28125 C 6.445312 -2.507812 4.632812 -4.21875 3.3125 -6.40625 C 2 -8.59375 1.34375 -11.066406 1.34375 -13.828125 C 1.34375 -16.597656 2 -19.078125 3.3125 -21.265625 C 4.632812 -23.453125 6.445312 -25.15625 8.75 -26.375 C 11.0625 -27.601562 13.664062 -28.21875 16.5625 -28.21875 C 19.09375 -28.21875 21.375 -27.769531 23.40625 -26.875 C 25.4375 -25.976562 27.125 -24.6875 28.46875 -23 L 23.484375 -18.5 C 21.691406 -20.65625 19.515625 -21.734375 16.953125 -21.734375 C 15.453125 -21.734375 14.113281 -21.40625 12.9375 -20.75 C 11.769531 -20.09375 10.863281 -19.164062 10.21875 -17.96875 C 9.570312 -16.769531 9.25 -15.390625 9.25 -13.828125 C 9.25 -12.273438 9.570312 -10.898438 10.21875 -9.703125 C 10.863281 -8.503906 11.769531 -7.570312 12.9375 -6.90625 C 14.113281 -6.25 15.453125 -5.921875 16.953125 -5.921875 C 19.515625 -5.921875 21.691406 -7.003906 23.484375 -9.171875 L 28.46875 -4.671875 C 27.125 -2.984375 25.4375 -1.691406 23.40625 -0.796875 C 21.375 0.0976562 19.09375 0.546875 16.5625 0.546875 Z M 16.5625 0.546875 "/></g></g></g><g fill="#1b2b38" fill-opacity="1"><g transform="translate(51.437185, 290.917042)"><g><path d="M 21.3125 -5.375 L 9.609375 -5.375 L 7.4375 0 L -0.546875 0 L 11.65625 -27.671875 L 19.375 -27.671875 L 31.625 0 L 23.484375 0 Z M 19.015625 -11.140625 L 15.453125 -20 L 11.90625 -11.140625 Z M 19.015625 -11.140625 "/></g></g></g><g fill="#1b2b38" fill-opacity="1"><g transform="translate(81.903518, 290.917042)"><g><path d="M 27.75 0 L 27.671875 -14.671875 L 20.5625 -2.734375 L 17.078125 -2.734375 L 10 -14.265625 L 10 0 L 2.765625 0 L 2.765625 -27.671875 L 9.203125 -27.671875 L 18.9375 -11.703125 L 28.421875 -27.671875 L 34.859375 -27.671875 L 34.953125 0 Z M 27.75 0 "/></g></g></g><g fill="#1b2b38" fill-opacity="1"><g transform="translate(119.008454, 290.917042)"><g><path d="M 8.65625 -21.46875 L 0.15625 -21.46875 L 0.15625 -27.671875 L 24.9375 -27.671875 L 24.9375 -21.46875 L 16.484375 -21.46875 L 16.484375 0 L 8.65625 0 Z M 8.65625 -21.46875 "/></g></g></g><g fill="#1b2b38" fill-opacity="1"><g transform="translate(143.50793, 290.917042)"><g><path d="M 21.3125 -5.375 L 9.609375 -5.375 L 7.4375 0 L -0.546875 0 L 11.65625 -27.671875 L 19.375 -27.671875 L 31.625 0 L 23.484375 0 Z M 19.015625 -11.140625 L 15.453125 -20 L 11.90625 -11.140625 Z M 19.015625 -11.140625 "/></g></g></g><g fill="#1b2b38" fill-opacity="1"><g transform="translate(173.974263, 290.917042)"><g><path d="M 16.5625 0.546875 C 13.664062 0.546875 11.0625 -0.0625 8.75 -1.28125 C 6.445312 -2.507812 4.632812 -4.21875 3.3125 -6.40625 C 2 -8.59375 1.34375 -11.066406 1.34375 -13.828125 C 1.34375 -16.597656 2 -19.078125 3.3125 -21.265625 C 4.632812 -23.453125 6.445312 -25.15625 8.75 -26.375 C 11.0625 -27.601562 13.664062 -28.21875 16.5625 -28.21875 C 19.09375 -28.21875 21.375 -27.769531 23.40625 -26.875 C 25.4375 -25.976562 27.125 -24.6875 28.46875 -23 L 23.484375 -18.5 C 21.691406 -20.65625 19.515625 -21.734375 16.953125 -21.734375 C 15.453125 -21.734375 14.113281 -21.40625 12.9375 -20.75 C 11.769531 -20.09375 10.863281 -19.164062 10.21875 -17.96875 C 9.570312 -16.769531 9.25 -15.390625 9.25 -13.828125 C 9.25 -12.273438 9.570312 -10.898438 10.21875 -9.703125 C 10.863281 -8.503906 11.769531 -7.570312 12.9375 -6.90625 C 14.113281 -6.25 15.453125 -5.921875 16.953125 -5.921875 C 19.515625 -5.921875 21.691406 -7.003906 23.484375 -9.171875 L 28.46875 -4.671875 C 27.125 -2.984375 25.4375 -1.691406 23.40625 -0.796875 C 21.375 0.0976562 19.09375 0.546875 16.5625 0.546875 Z M 16.5625 0.546875 "/></g></g></g><g fill="#1b2b38" fill-opacity="1"><g transform="translate(202.543841, 290.917042)"><g/></g></g><g fill="#1b2b38" fill-opacity="1"><g transform="translate(213.449968, 290.917042)"><g><path d="M 29.09375 -27.671875 L 29.09375 0 L 21.265625 0 L 21.265625 -10.796875 L 10.59375 -10.796875 L 10.59375 0 L 2.765625 0 L 2.765625 -27.671875 L 10.59375 -27.671875 L 10.59375 -17.28125 L 21.265625 -17.28125 L 21.265625 -27.671875 Z M 29.09375 -27.671875 "/></g></g></g><g fill="#1b2b38" fill-opacity="1"><g transform="translate(244.706596, 290.917042)"><g><path d="M 16.71875 0.546875 C 13.789062 0.546875 11.160156 -0.0664062 8.828125 -1.296875 C 6.503906 -2.535156 4.675781 -4.25 3.34375 -6.4375 C 2.007812 -8.625 1.34375 -11.085938 1.34375 -13.828125 C 1.34375 -16.578125 2.007812 -19.046875 3.34375 -21.234375 C 4.675781 -23.421875 6.503906 -25.128906 8.828125 -26.359375 C 11.160156 -27.597656 13.789062 -28.21875 16.71875 -28.21875 C 19.644531 -28.21875 22.273438 -27.597656 24.609375 -26.359375 C 26.941406 -25.128906 28.769531 -23.421875 30.09375 -21.234375 C 31.425781 -19.046875 32.09375 -16.578125 32.09375 -13.828125 C 32.09375 -11.085938 31.425781 -8.625 30.09375 -6.4375 C 28.769531 -4.25 26.941406 -2.535156 24.609375 -1.296875 C 22.273438 -0.0664062 19.644531 0.546875 16.71875 0.546875 Z M 16.71875 -5.921875 C 18.113281 -5.921875 19.378906 -6.25 20.515625 -6.90625 C 21.648438 -7.570312 22.546875 -8.503906 23.203125 -9.703125 C 23.859375 -10.898438 24.1875 -12.273438 24.1875 -13.828125 C 24.1875 -15.390625 23.859375 -16.769531 23.203125 -17.96875 C 22.546875 -19.164062 21.648438 -20.09375 20.515625 -20.75 C 19.378906 -21.40625 18.113281 -21.734375 16.71875 -21.734375 C 15.320312 -21.734375 14.054688 -21.40625 12.921875 -20.75 C 11.796875 -20.09375 10.898438 -19.164062 10.234375 -17.96875 C 9.578125 -16.769531 9.25 -15.390625 9.25 -13.828125 C 9.25 -12.273438 9.578125 -10.898438 10.234375 -9.703125 C 10.898438 -8.503906 11.796875 -7.570312 12.921875 -6.90625 C 14.054688 -6.25 15.320312 -5.921875 16.71875 -5.921875 Z M 16.71875 -5.921875 "/></g></g></g><g fill="#1b2b38" fill-opacity="1"><g transform="translate(277.543859, 290.917042)"><g><path d="M 8.65625 -21.46875 L 0.15625 -21.46875 L 0.15625 -27.671875 L 24.9375 -27.671875 L 24.9375 -21.46875 L 16.484375 -21.46875 L 16.484375 0 L 8.65625 0 Z M 8.65625 -21.46875 "/></g></g></g><g fill="#1b2b38" fill-opacity="1"><g transform="translate(302.043324, 290.917042)"><g><path d="M 24.984375 -6.046875 L 24.984375 0 L 2.765625 0 L 2.765625 -27.671875 L 24.46875 -27.671875 L 24.46875 -21.625 L 10.515625 -21.625 L 10.515625 -16.953125 L 22.8125 -16.953125 L 22.8125 -11.109375 L 10.515625 -11.109375 L 10.515625 -6.046875 Z M 24.984375 -6.046875 "/></g></g></g><g fill="#1b2b38" fill-opacity="1"><g transform="translate(328.004885, 290.917042)"><g><path d="M 2.765625 -27.671875 L 10.59375 -27.671875 L 10.59375 -6.203125 L 23.796875 -6.203125 L 23.796875 0 L 2.765625 0 Z M 2.765625 -27.671875 "/></g></g></g><g fill="#ffbf00" fill-opacity="1"><g transform="translate(102.93477, 313.923289)"><g><path d="M 5.453125 -9.796875 C 6.347656 -9.796875 7.117188 -9.648438 7.765625 -9.359375 C 8.421875 -9.066406 8.925781 -8.644531 9.28125 -8.09375 C 9.632812 -7.550781 9.8125 -6.910156 9.8125 -6.171875 C 9.8125 -5.429688 9.632812 -4.789062 9.28125 -4.25 C 8.925781 -3.707031 8.421875 -3.289062 7.765625 -3 C 7.117188 -2.707031 6.347656 -2.5625 5.453125 -2.5625 L 3.75 -2.5625 L 3.75 0 L 0.984375 0 L 0.984375 -9.796875 Z M 5.296875 -4.75 C 5.859375 -4.75 6.285156 -4.867188 6.578125 -5.109375 C 6.867188 -5.359375 7.015625 -5.710938 7.015625 -6.171875 C 7.015625 -6.628906 6.867188 -6.984375 6.578125 -7.234375 C 6.285156 -7.484375 5.859375 -7.609375 5.296875 -7.609375 L 3.75 -7.609375 L 3.75 -4.75 Z M 5.296875 -4.75 "/></g></g></g><g fill="#ffbf00" fill-opacity="1"><g transform="translate(118.147026, 313.923289)"><g><path d="M 5.265625 -2.609375 L 3.75 -2.609375 L 3.75 0 L 0.984375 0 L 0.984375 -9.796875 L 5.453125 -9.796875 C 6.347656 -9.796875 7.117188 -9.648438 7.765625 -9.359375 C 8.421875 -9.066406 8.925781 -8.644531 9.28125 -8.09375 C 9.632812 -7.550781 9.8125 -6.910156 9.8125 -6.171875 C 9.8125 -5.460938 9.644531 -4.84375 9.3125 -4.3125 C 8.976562 -3.789062 8.503906 -3.378906 7.890625 -3.078125 L 10.015625 0 L 7.046875 0 Z M 7.015625 -6.171875 C 7.015625 -6.628906 6.867188 -6.984375 6.578125 -7.234375 C 6.285156 -7.484375 5.859375 -7.609375 5.296875 -7.609375 L 3.75 -7.609375 L 3.75 -4.75 L 5.296875 -4.75 C 5.859375 -4.75 6.285156 -4.867188 6.578125 -5.109375 C 6.867188 -5.359375 7.015625 -5.710938 7.015625 -6.171875 Z M 7.015625 -6.171875 "/></g></g></g><g fill="#ffbf00" fill-opacity="1"><g transform="translate(133.401258, 313.923289)"><g><path d="M 8.84375 -2.140625 L 8.84375 0 L 0.984375 0 L 0.984375 -9.796875 L 8.671875 -9.796875 L 8.671875 -7.65625 L 3.71875 -7.65625 L 3.71875 -6 L 8.078125 -6 L 8.078125 -3.9375 L 3.71875 -3.9375 L 3.71875 -2.140625 Z M 8.84375 -2.140625 "/></g></g></g><g fill="#ffbf00" fill-opacity="1"><g transform="translate(147.704017, 313.923289)"><g><path d="M 9.828125 0 L 9.796875 -5.1875 L 7.28125 -0.96875 L 6.046875 -0.96875 L 3.546875 -5.046875 L 3.546875 0 L 0.984375 0 L 0.984375 -9.796875 L 3.265625 -9.796875 L 6.703125 -4.140625 L 10.0625 -9.796875 L 12.34375 -9.796875 L 12.375 0 Z M 9.828125 0 "/></g></g></g><g fill="#ffbf00" fill-opacity="1"><g transform="translate(165.952573, 313.923289)"><g><path d="M 0.984375 -9.796875 L 3.75 -9.796875 L 3.75 0 L 0.984375 0 Z M 0.984375 -9.796875 "/></g></g></g><g fill="#ffbf00" fill-opacity="1"><g transform="translate(175.595931, 313.923289)"><g><path d="M 5.5 0.203125 C 4.039062 0.203125 2.90625 -0.191406 2.09375 -0.984375 C 1.289062 -1.785156 0.890625 -2.914062 0.890625 -4.375 L 0.890625 -9.796875 L 3.671875 -9.796875 L 3.671875 -4.453125 C 3.671875 -2.878906 4.289062 -2.09375 5.53125 -2.09375 C 6.757812 -2.09375 7.375 -2.878906 7.375 -4.453125 L 7.375 -9.796875 L 10.109375 -9.796875 L 10.109375 -4.375 C 10.109375 -2.914062 9.703125 -1.785156 8.890625 -0.984375 C 8.085938 -0.191406 6.957031 0.203125 5.5 0.203125 Z M 5.5 0.203125 "/></g></g></g><g fill="#ffbf00" fill-opacity="1"><g transform="translate(191.493804, 313.923289)"><g><path d="M 9.828125 0 L 9.796875 -5.1875 L 7.28125 -0.96875 L 6.046875 -0.96875 L 3.546875 -5.046875 L 3.546875 0 L 0.984375 0 L 0.984375 -9.796875 L 3.265625 -9.796875 L 6.703125 -4.140625 L 10.0625 -9.796875 L 12.34375 -9.796875 L 12.375 0 Z M 9.828125 0 "/></g></g></g><g fill="#ffbf00" fill-opacity="1"><g transform="translate(209.742357, 313.923289)"><g/></g></g><g fill="#ffbf00" fill-opacity="1"><g transform="translate(218.71409, 313.923289)"><g><path d="M 4.421875 0.203125 C 3.628906 0.203125 2.859375 0.101562 2.109375 -0.09375 C 1.367188 -0.289062 0.765625 -0.550781 0.296875 -0.875 L 1.203125 -2.921875 C 1.640625 -2.628906 2.144531 -2.394531 2.71875 -2.21875 C 3.300781 -2.039062 3.875 -1.953125 4.4375 -1.953125 C 5.5 -1.953125 6.03125 -2.222656 6.03125 -2.765625 C 6.03125 -3.035156 5.878906 -3.238281 5.578125 -3.375 C 5.273438 -3.507812 4.785156 -3.65625 4.109375 -3.8125 C 3.378906 -3.96875 2.765625 -4.132812 2.265625 -4.3125 C 1.773438 -4.5 1.351562 -4.789062 1 -5.1875 C 0.644531 -5.59375 0.46875 -6.132812 0.46875 -6.8125 C 0.46875 -7.414062 0.628906 -7.957031 0.953125 -8.4375 C 1.273438 -8.914062 1.757812 -9.296875 2.40625 -9.578125 C 3.0625 -9.859375 3.859375 -10 4.796875 -10 C 5.441406 -10 6.078125 -9.925781 6.703125 -9.78125 C 7.328125 -9.632812 7.878906 -9.421875 8.359375 -9.140625 L 7.5 -7.078125 C 6.570312 -7.585938 5.664062 -7.84375 4.78125 -7.84375 C 4.238281 -7.84375 3.835938 -7.757812 3.578125 -7.59375 C 3.328125 -7.425781 3.203125 -7.210938 3.203125 -6.953125 C 3.203125 -6.691406 3.351562 -6.492188 3.65625 -6.359375 C 3.957031 -6.234375 4.4375 -6.101562 5.09375 -5.96875 C 5.84375 -5.800781 6.460938 -5.628906 6.953125 -5.453125 C 7.441406 -5.273438 7.863281 -4.984375 8.21875 -4.578125 C 8.582031 -4.179688 8.765625 -3.644531 8.765625 -2.96875 C 8.765625 -2.382812 8.597656 -1.851562 8.265625 -1.375 C 7.941406 -0.894531 7.453125 -0.507812 6.796875 -0.21875 C 6.148438 0.0625 5.359375 0.203125 4.421875 0.203125 Z M 4.421875 0.203125 "/></g></g></g><g fill="#ffbf00" fill-opacity="1"><g transform="translate(232.667046, 313.923289)"><g><path d="M 3.0625 -7.609375 L 0.0625 -7.609375 L 0.0625 -9.796875 L 8.828125 -9.796875 L 8.828125 -7.609375 L 5.84375 -7.609375 L 5.84375 0 L 3.0625 0 Z M 3.0625 -7.609375 "/></g></g></g><g fill="#ffbf00" fill-opacity="1"><g transform="translate(246.452095, 313.923289)"><g><path d="M 7.546875 -1.90625 L 3.40625 -1.90625 L 2.625 0 L -0.203125 0 L 4.125 -9.796875 L 6.859375 -9.796875 L 11.203125 0 L 8.3125 0 Z M 6.734375 -3.953125 L 5.46875 -7.078125 L 4.21875 -3.953125 Z M 6.734375 -3.953125 "/></g></g></g><g fill="#ffbf00" fill-opacity="1"><g transform="translate(262.349963, 313.923289)"><g><path d="M 6.234375 -3.515625 L 6.234375 0 L 3.453125 0 L 3.453125 -3.5625 L -0.28125 -9.796875 L 2.640625 -9.796875 L 4.96875 -5.90625 L 7.296875 -9.796875 L 9.984375 -9.796875 Z M 6.234375 -3.515625 "/></g></g></g></svg>